<svg width="320" height="90" xmlns="http://www.w3.org/2000/svg">

 <g>
  <title>background</title>
  <rect fill="none" id="canvas_background" height="92" width="322" y="-1" x="-1"/>
 </g>
 <g>
  <title>Layer 1</title>
  <g id="svg_1">
   <path id="svg_2" d="m64.367009,15.085502l0,35.429c0,4.124 -0.321,8.105 -0.961,11.949c-0.641,3.844 -2.521,7.299 -5.64,10.361c-2.006,2.006 -4.387,3.524 -7.145,4.555s-5.585,1.713 -8.481,2.047c-0.892,0.111 -1.783,0.194 -2.674,0.251c-0.892,0.055 -1.755,0.083 -2.59,0.083s-1.7,-0.028 -2.59,-0.083c-0.892,-0.057 -1.784,-0.14 -2.674,-0.251c-2.897,-0.334 -5.724,-1.017 -8.481,-2.047s-5.139,-2.549 -7.145,-4.555c-3.12,-3.063 -5,-6.518 -5.64,-10.361c-0.641,-3.844 -0.961,-7.798 -0.961,-11.865l0,-35.513l16.378,0l0,33.173c0,0.391 0,0.739 0,1.045c0,0.307 0,0.626 0,0.961c0.055,3.789 0.71,7.27 1.963,10.444c1.253,3.176 4.303,4.764 9.15,4.764s7.896,-1.588 9.15,-4.764c1.253,-3.175 1.907,-6.655 1.963,-10.444c0,-0.335 0,-0.654 0,-0.961c0,-0.306 0,-0.627 0,-0.961l0,-33.257l16.378,0z" fill="#040000"/>
   <path id="svg_3" d="m81.664009,15.085502l16.127,0l12.785,33.675l13.537,-33.675l16.294,0l9.526,63.004l-16.377,0l-4.596,-36.265l-0.167,0l-15.125,36.265l-6.518,0l-14.456,-36.265l-0.167,0l-5.264,36.265l-16.295,0l10.696,-63.004z" fill="#040000"/>
   <path id="svg_4" d="m171.490009,35.223502l0,22.896c0,2.786 0.486,5.042 1.462,6.769c0.974,1.727 3.021,2.59 6.142,2.59c3.119,0 5.166,-0.863 6.142,-2.59c0.974,-1.727 1.462,-3.955 1.462,-6.686l0,-22.979l15.209,0l0,25.82c0,7.131 -2.188,11.99 -6.561,14.581c-4.373,2.59 -9.791,3.886 -16.252,3.886c-6.406,0 -11.811,-1.296 -16.211,-3.886c-4.401,-2.591 -6.601,-7.423 -6.601,-14.498l0,-25.903l15.208,0z" fill="#040000"/>
   <path id="svg_5" d="m245.023009,36.560502l-5.097,9.693c-0.669,-0.335 -1.408,-0.641 -2.215,-0.92c-0.809,-0.277 -1.629,-0.501 -2.465,-0.668c-0.613,-0.111 -1.212,-0.209 -1.797,-0.293c-0.584,-0.083 -1.156,-0.125 -1.713,-0.125c-0.279,0 -0.572,0.015 -0.877,0.042c-0.307,0.028 -0.6,0.098 -0.877,0.209c-0.781,0.167 -1.478,0.459 -2.09,0.877c-0.613,0.418 -0.919,1.018 -0.919,1.797c0,0.947 0.403,1.658 1.212,2.131c0.807,0.474 1.713,0.822 2.715,1.044c0.557,0.167 1.087,0.293 1.588,0.376c0.502,0.084 0.947,0.154 1.338,0.209c3.563,0.725 6.53,2.034 8.898,3.928c2.367,1.895 3.551,4.819 3.551,8.773c0,5.46 -2.005,9.43 -6.016,11.907c-4.012,2.479 -8.439,3.802 -13.286,3.97c-0.167,0 -0.321,0 -0.46,0s-0.292,0 -0.459,0c-3.064,0 -6.059,-0.418 -8.982,-1.254c-2.926,-0.836 -5.697,-2.033 -8.314,-3.593l5.515,-10.696c0.946,0.725 2.032,1.379 3.259,1.964c1.225,0.585 2.479,1.101 3.76,1.546c0.891,0.279 1.756,0.502 2.591,0.669s1.643,0.25 2.423,0.25c0.223,0 0.46,-0.013 0.711,-0.041c0.25,-0.027 0.514,-0.069 0.793,-0.126c0.836,-0.167 1.588,-0.501 2.257,-1.003c0.669,-0.501 1.003,-1.196 1.003,-2.089c0,-1.225 -0.586,-2.102 -1.755,-2.632c-1.17,-0.528 -2.563,-0.961 -4.179,-1.295c-0.613,-0.111 -1.211,-0.236 -1.796,-0.376c-0.585,-0.139 -1.185,-0.293 -1.797,-0.46c-2.396,-0.612 -4.583,-1.685 -6.56,-3.217c-1.978,-1.531 -2.966,-4.22 -2.966,-8.063c0,-5.181 1.922,-8.996 5.766,-11.448c3.844,-2.45 8.049,-3.704 12.617,-3.76c0.111,0 0.209,0 0.292,0c0.084,0 0.153,0 0.209,0c2.451,0 4.859,0.209 7.229,0.627c2.367,0.417 4.665,1.128 6.894,2.131l0,-0.084l-0.001,0z" fill="#040000"/>
   <path id="svg_6" d="m268.084009,12.828502c1.671,1.672 2.506,3.677 2.506,6.017s-0.835,4.346 -2.506,6.017c-1.672,1.671 -3.678,2.507 -6.017,2.507c-2.34,0 -4.345,-0.836 -6.017,-2.507c-1.671,-1.671 -2.507,-3.677 -2.507,-6.017c0,-2.361 0.836,-4.387 2.507,-6.075c1.672,-1.687 3.677,-2.531 6.017,-2.531c2.339,0.055 4.345,0.919 6.017,2.589zm1.588,65.261l-15.209,0l0,-42.866l15.209,0l0,42.866z" fill="#040000"/>
   <path id="svg_7" d="m310.615009,36.309502l0,12.868c-1.115,-0.779 -2.34,-1.462 -3.677,-2.047s-2.73,-0.877 -4.179,-0.877c-2.896,0 -5.361,1.002 -7.395,3.008c-2.034,2.005 -3.05,4.484 -3.05,7.437c0,3.064 1.003,5.586 3.008,7.563c2.005,1.978 4.567,2.966 7.688,2.966c0.278,0 0.57,-0.013 0.878,-0.041c0.305,-0.027 0.598,-0.069 0.877,-0.126c1.058,-0.167 2.103,-0.486 3.134,-0.961c1.03,-0.473 1.935,-1.071 2.716,-1.796l0,12.784c-1.672,0.836 -3.413,1.448 -5.223,1.839c-1.812,0.389 -3.635,0.585 -5.473,0.585c-6.352,0 -11.824,-2.103 -16.42,-6.31c-4.596,-4.205 -6.895,-9.538 -6.895,-16.001c0,-6.907 2.312,-12.52 6.936,-16.838c4.623,-4.316 10.306,-6.476 17.047,-6.476c1.781,0 3.522,0.209 5.223,0.627c1.698,0.417 3.3,1.044 4.805,1.88l0,-0.084z" fill="#040000"/>
  </g>
 </g>
</svg>