<?xml version="1.0" encoding="utf-8"?>
<!-- Generator: Adobe Illustrator 16.0.0, SVG Export Plug-In . SVG Version: 6.00 Build 0)  -->
<!DOCTYPE svg PUBLIC "-//W3C//DTD SVG 1.1//EN" "http://www.w3.org/Graphics/SVG/1.1/DTD/svg11.dtd">
<svg version="1.1" id="图层_1" xmlns="http://www.w3.org/2000/svg" xmlns:xlink="http://www.w3.org/1999/xlink" x="0px" y="0px"
	 width="56.69px" height="17.01px" viewBox="0 0 56.69 17.01" enable-background="new 0 0 56.69 17.01" xml:space="preserve">
<g>
	<path fill="#DE6A6D" d="M15.129,4.21v5.088c0,0.592-0.046,1.164-0.138,1.716c-0.092,0.552-0.362,1.048-0.81,1.488
		c-0.288,0.287-0.63,0.506-1.026,0.652c-0.396,0.148-0.802,0.246-1.218,0.295c-0.128,0.017-0.256,0.027-0.384,0.035
		s-0.252,0.013-0.372,0.013s-0.244-0.005-0.372-0.013s-0.256-0.02-0.384-0.035c-0.416-0.049-0.822-0.146-1.218-0.295
		c-0.396-0.146-0.738-0.365-1.026-0.652c-0.448-0.44-0.718-0.938-0.81-1.488c-0.092-0.551-0.138-1.12-0.138-1.704v-5.1h2.352v4.764
		c0,0.057,0,0.105,0,0.149c0,0.045,0,0.091,0,0.139c0.008,0.544,0.102,1.044,0.282,1.5s0.618,0.685,1.314,0.685
		s1.134-0.229,1.314-0.685s0.274-0.956,0.282-1.5c0-0.048,0-0.094,0-0.139c0-0.044,0-0.09,0-0.139V4.21H15.129z"/>
	<path fill="#DE6A6D" d="M17.613,4.21h2.316l1.836,4.836l1.944-4.836h2.34l1.368,9.048h-2.352l-0.66-5.208h-0.024l-2.172,5.208
		h-0.936L19.197,8.05h-0.024l-0.756,5.208h-2.34L17.613,4.21z"/>
	<path fill="#DE6A6D" d="M30.513,7.102v3.288c0,0.399,0.069,0.725,0.21,0.973s0.434,0.371,0.882,0.371s0.743-0.123,0.882-0.371
		c0.141-0.248,0.211-0.567,0.211-0.961V7.103h2.183v3.708c0,1.024-0.313,1.723-0.941,2.094c-0.627,0.373-1.405,0.56-2.333,0.56
		c-0.92,0-1.696-0.187-2.327-0.56c-0.633-0.371-0.949-1.064-0.949-2.082V7.104h2.183V7.102z"/>
	<path fill="#DE6A6D" d="M41.073,7.294l-0.732,1.393c-0.096-0.049-0.201-0.093-0.318-0.133c-0.115-0.04-0.232-0.072-0.354-0.097
		c-0.088-0.016-0.174-0.029-0.258-0.042c-0.084-0.012-0.166-0.018-0.246-0.018c-0.039,0-0.082,0.002-0.125,0.006
		c-0.045,0.004-0.086,0.015-0.127,0.03C38.802,8.457,38.7,8.5,38.612,8.56c-0.088,0.061-0.133,0.146-0.133,0.258
		c0,0.137,0.061,0.238,0.176,0.308c0.115,0.067,0.246,0.116,0.391,0.149c0.08,0.023,0.156,0.041,0.229,0.053
		c0.07,0.014,0.135,0.023,0.191,0.031c0.512,0.104,0.938,0.291,1.277,0.563c0.34,0.271,0.51,0.691,0.51,1.26
		c0,0.784-0.287,1.354-0.863,1.71c-0.576,0.355-1.213,0.547-1.908,0.57c-0.023,0-0.047,0-0.064,0c-0.021,0-0.043,0-0.066,0
		c-0.439,0-0.871-0.062-1.291-0.181c-0.42-0.121-0.816-0.293-1.193-0.517l0.793-1.536c0.137,0.104,0.291,0.198,0.469,0.282
		c0.176,0.084,0.355,0.158,0.539,0.222c0.129,0.041,0.252,0.072,0.373,0.096c0.119,0.025,0.234,0.037,0.348,0.037
		c0.031,0,0.066-0.002,0.102-0.006c0.037-0.004,0.074-0.01,0.113-0.019c0.121-0.024,0.23-0.071,0.324-0.145
		c0.096-0.073,0.145-0.172,0.145-0.301c0-0.176-0.084-0.302-0.252-0.377c-0.168-0.076-0.367-0.139-0.6-0.188
		c-0.088-0.017-0.174-0.033-0.258-0.054s-0.17-0.043-0.258-0.065c-0.346-0.089-0.658-0.242-0.943-0.462
		c-0.283-0.221-0.426-0.606-0.426-1.158c0-0.744,0.275-1.292,0.828-1.645c0.553-0.352,1.156-0.532,1.813-0.54
		c0.016,0,0.029,0,0.041,0c0.014,0,0.023,0,0.031,0c0.352,0,0.697,0.03,1.037,0.09c0.34,0.061,0.67,0.162,0.99,0.307v-0.01H41.073z"
		/>
	<path fill="#DE6A6D" d="M44.384,3.886c0.24,0.24,0.359,0.527,0.359,0.864c0,0.336-0.119,0.623-0.359,0.863s-0.527,0.36-0.865,0.36
		c-0.336,0-0.623-0.12-0.861-0.36c-0.24-0.24-0.361-0.527-0.361-0.863c0-0.34,0.121-0.631,0.361-0.873
		c0.238-0.243,0.525-0.364,0.861-0.364C43.856,3.521,44.144,3.646,44.384,3.886z M44.612,13.258h-2.186V7.102h2.186V13.258z"/>
	<path fill="#DE6A6D" d="M50.491,7.258v1.849c-0.16-0.113-0.336-0.211-0.527-0.295s-0.393-0.125-0.6-0.125
		c-0.416,0-0.771,0.143-1.064,0.432c-0.291,0.287-0.438,0.645-0.438,1.068c0,0.439,0.145,0.801,0.432,1.086
		c0.289,0.283,0.656,0.426,1.104,0.426c0.041,0,0.082-0.002,0.127-0.006s0.086-0.011,0.127-0.019
		c0.15-0.024,0.301-0.069,0.447-0.139c0.148-0.067,0.279-0.153,0.393-0.258v1.836c-0.24,0.119-0.49,0.207-0.75,0.265
		c-0.262,0.056-0.523,0.084-0.787,0.084c-0.912,0-1.697-0.303-2.357-0.906c-0.66-0.604-0.988-1.369-0.988-2.298
		c0-0.991,0.33-1.798,0.994-2.418s1.48-0.931,2.447-0.931c0.256,0,0.506,0.03,0.75,0.091c0.244,0.06,0.477,0.149,0.691,0.27V7.258
		L50.491,7.258z"/>
</g>
</svg>
